<?xml version="1.0" standalone="no"?>
<!DOCTYPE svg PUBLIC "-//W3C//DTD SVG 20010904//EN"
 "http://www.w3.org/TR/2001/REC-SVG-20010904/DTD/svg10.dtd">
<svg version="1.0" xmlns="http://www.w3.org/2000/svg"
 width="100px" viewBox="0 0 696.000000 204.000000"
 preserveAspectRatio="xMidYMid meet">

<g transform="translate(0.000000,204.000000) scale(0.100000,-0.100000)"
fill="#bb2424" stroke="none">
<path d="M1213 1580 l2 -450 230 2 230 3 5 78 c3 54 10 81 20 87 8 5 78 10
155 10 77 0 181 5 230 10 155 18 251 81 304 201 26 58 45 180 37 236 -15 108
-84 200 -189 249 l-52 24 -487 0 -487 0 2 -450z m762 108 c20 -9 25 -18 25
-49 0 -28 -5 -41 -19 -49 -11 -5 -75 -10 -142 -10 -136 0 -159 9 -159 61 0 48
29 59 157 59 64 0 123 -5 138 -12z"/>
<path d="M2512 1867 c2 -90 8 -168 12 -175 5 -8 50 -12 151 -12 153 0 189 -8
199 -44 3 -11 6 -130 6 -263 l0 -243 244 0 243 0 5 255 c5 225 8 258 23 275
16 17 34 20 169 22 l151 3 3 173 2 172 -606 0 -607 0 5 -163z"/>
<path d="M3814 1969 c3 -34 6 -237 6 -451 l0 -388 312 2 311 3 -4 320 c-2 176
-3 377 -3 448 l1 127 -315 0 -315 0 7 -61z"/>
<path d="M4532 1867 c2 -90 8 -168 12 -175 5 -8 50 -12 151 -12 153 0 189 -8
199 -44 3 -11 6 -130 6 -263 l0 -243 244 0 243 0 5 255 c5 225 8 258 23 275
16 17 34 20 169 22 l151 3 3 173 2 172 -606 0 -607 0 5 -163z"/>
<path d="M400 1054 c-87 -23 -160 -63 -222 -122 -119 -113 -161 -216 -161
-392 0 -129 19 -205 75 -292 68 -107 203 -201 326 -227 38 -8 905 -11 3065
-11 2672 0 3020 2 3072 15 209 54 358 222 386 433 38 286 -119 527 -387 597
-51 13 -418 15 -3079 14 -2614 0 -3027 -2 -3075 -15z m809 -265 c100 -21 146
-74 161 -182 13 -89 -2 -171 -38 -216 -51 -63 -86 -70 -353 -70 l-236 -1 -6
218 c-3 120 -3 228 0 240 5 22 8 22 214 22 114 0 231 -5 258 -11z m759 -12
c17 -10 44 -36 60 -59 23 -35 28 -54 30 -124 7 -158 -40 -240 -152 -265 -30
-6 -114 -10 -206 -7 -143 3 -158 5 -199 28 -61 34 -82 73 -88 168 -10 149 26
236 112 267 62 23 398 17 443 -8z m772 -77 l0 -100 -143 0 c-147 0 -167 -5
-167 -41 0 -28 28 -33 170 -34 l135 0 3 -103 3 -103 -259 3 -259 3 -41 29
c-64 44 -82 92 -82 214 0 109 12 153 48 185 45 41 86 46 345 47 l247 0 0 -100z
m321 -12 c1 -62 4 -126 8 -143 7 -32 38 -46 52 -23 5 7 9 73 9 146 l0 132 145
0 145 0 0 -183 c0 -209 -7 -236 -76 -271 -36 -19 -57 -21 -244 -21 -313 0
-313 1 -318 288 l-4 187 141 0 141 0 1 -112z m745 50 c12 -83 30 -86 41 -6 l8
63 163 3 162 2 0 -240 0 -240 -115 0 -115 0 0 70 c0 39 -4 70 -9 70 -5 0 -15
-26 -21 -57 -6 -32 -13 -64 -15 -70 -3 -9 -30 -13 -89 -13 -95 0 -85 -9 -101
98 -8 49 -25 56 -25 10 0 -18 -3 -50 -6 -70 l-7 -38 -110 0 -110 0 7 53 c3 28
6 136 6 240 l0 187 164 0 163 0 9 -62z m1054 -13 l0 -75 -154 0 c-122 0 -156
-3 -166 -15 -25 -30 0 -35 161 -35 l159 0 0 -50 0 -49 -157 -3 c-150 -3 -158
-4 -158 -23 0 -19 8 -20 158 -23 l157 -3 0 -64 0 -65 -321 0 -322 0 7 61 c3
34 6 142 6 240 l0 179 315 0 315 0 0 -75z m356 8 c29 -100 54 -91 54 20 l0 47
135 0 135 0 0 -240 0 -240 -149 0 -149 0 -24 61 c-12 34 -27 62 -33 63 -5 0
-11 -27 -13 -61 l-3 -63 -132 0 -132 0 3 232 c1 128 2 236 2 241 0 4 64 7 143
7 l143 0 20 -67z m1004 -27 c0 -109 3 -106 -100 -106 -53 0 -69 -4 -74 -16 -3
-9 -6 -72 -6 -140 l0 -125 -132 3 -133 3 0 127 c0 70 -5 132 -10 137 -6 6 -46
11 -90 13 l-80 3 -9 82 c-5 45 -6 89 -3 97 6 14 45 16 322 16 l315 0 0 -94z"/>
<path d="M962 563 l3 -28 85 3 c52 2 87 7 92 15 15 23 -24 37 -105 37 l-78 0
3 -27z"/>
<path d="M1627 584 c-4 -4 -7 -16 -7 -26 0 -17 8 -18 108 -16 99 3 107 4 107
23 0 18 -8 20 -101 23 -55 1 -103 0 -107 -4z"/>
</g>
</svg>
